<svg width="200" height="64" viewBox="0 0 200 64" fill="none" xmlns="http://www.w3.org/2000/svg">
<g clip-path="url(#clip0_338_2)">
<path d="M7.21738 25.024V20.864H25.7294V25.024H18.8974V44H14.2094V25.024H7.21738ZM29.7306 36.8C29.72 37.6427 29.8533 38.3787 30.1306 39.008C30.408 39.6267 30.808 40.1067 31.3306 40.448C31.864 40.7787 32.504 40.944 33.2506 40.944C34.0506 40.944 34.7493 40.7733 35.3466 40.432C35.9546 40.0907 36.376 39.5307 36.6106 38.752H40.8186C40.6373 39.9253 40.168 40.928 39.4106 41.76C38.664 42.592 37.7573 43.2267 36.6906 43.664C35.624 44.1013 34.5146 44.32 33.3626 44.32C31.7306 44.32 30.2906 43.9787 29.0426 43.296C27.8053 42.6027 26.84 41.6267 26.1466 40.368C25.4533 39.1093 25.1066 37.6267 25.1066 35.92C25.1066 34.2667 25.4213 32.7787 26.0506 31.456C26.68 30.1227 27.592 29.072 28.7866 28.304C29.992 27.5253 31.4373 27.136 33.1226 27.136C34.808 27.136 36.2213 27.4933 37.3626 28.208C38.5146 28.912 39.3786 29.8987 39.9546 31.168C40.5413 32.4267 40.8346 33.8827 40.8346 35.536V36.8H29.7306ZM29.7146 34.016H36.4666C36.4666 33.3547 36.344 32.7467 36.0986 32.192C35.8533 31.6373 35.48 31.2 34.9786 30.88C34.488 30.56 33.8693 30.4 33.1226 30.4C32.3973 30.4 31.7786 30.576 31.2666 30.928C30.7653 31.2693 30.3813 31.7173 30.1146 32.272C29.848 32.8267 29.7146 33.408 29.7146 34.016ZM48.7844 44.32C47.7284 44.32 46.779 44.1227 45.9364 43.728C45.0937 43.3333 44.427 42.7627 43.9364 42.016C43.4457 41.2587 43.2004 40.3413 43.2004 39.264C43.2004 37.4507 43.8777 36.0747 45.2324 35.136C46.587 34.1867 48.7257 33.696 51.6484 33.664L53.7124 33.632V32.64C53.7124 31.8827 53.4884 31.3013 53.0404 30.896C52.603 30.48 51.9204 30.2773 50.9924 30.288C50.3097 30.2987 49.659 30.4587 49.0404 30.768C48.4324 31.0773 48.0164 31.616 47.7924 32.384H43.9044C43.9684 31.1893 44.315 30.208 44.9444 29.44C45.5737 28.6613 46.427 28.0853 47.5044 27.712C48.5924 27.328 49.8244 27.136 51.2004 27.136C52.8964 27.136 54.2564 27.3493 55.2804 27.776C56.3044 28.192 57.0457 28.7947 57.5044 29.584C57.963 30.3627 58.1924 31.2907 58.1924 32.368V44H54.2884L53.9044 41.152C53.339 42.3467 52.6297 43.1733 51.7764 43.632C50.9337 44.0907 49.9364 44.32 48.7844 44.32ZM50.3524 41.248C50.779 41.248 51.1897 41.1733 51.5844 41.024C51.9897 40.864 52.347 40.656 52.6564 40.4C52.9764 40.1333 53.2324 39.8347 53.4244 39.504C53.6164 39.1733 53.7124 38.832 53.7124 38.48V36.032L52.0324 36.064C51.2537 36.0747 50.5284 36.1707 49.8564 36.352C49.1844 36.5227 48.6404 36.8053 48.2244 37.2C47.819 37.5947 47.6164 38.128 47.6164 38.8C47.6164 39.568 47.883 40.1707 48.4164 40.608C48.9497 41.0347 49.595 41.248 50.3524 41.248ZM67.9894 44L76.2774 20.864H81.2054L89.4774 44H84.8214L82.9334 38.64H74.6134L72.6774 44H67.9894ZM75.6534 34.56H81.8134L78.7574 25.376L75.6534 34.56ZM98.6846 44.32C97.5326 44.32 96.4233 44.1333 95.3566 43.76C94.29 43.376 93.3886 42.7787 92.6526 41.968C91.9166 41.1467 91.4473 40.0853 91.2446 38.784H95.2926C95.4313 39.3707 95.682 39.8347 96.0446 40.176C96.418 40.5173 96.8393 40.7627 97.3086 40.912C97.778 41.0507 98.226 41.12 98.6526 41.12C99.5486 41.12 100.269 40.9813 100.813 40.704C101.367 40.416 101.645 39.9787 101.645 39.392C101.645 38.944 101.479 38.5867 101.149 38.32C100.829 38.0533 100.295 37.8507 99.5486 37.712L96.6366 37.104C95.1753 36.7947 94.002 36.272 93.1166 35.536C92.2313 34.7893 91.778 33.7333 91.7566 32.368C91.7566 31.376 92.018 30.4853 92.5406 29.696C93.074 28.9067 93.858 28.2827 94.8926 27.824C95.9273 27.3653 97.1966 27.136 98.7006 27.136C100.738 27.136 102.365 27.584 103.581 28.48C104.807 29.376 105.431 30.64 105.453 32.272H101.549C101.431 31.632 101.111 31.1413 100.589 30.8C100.077 30.448 99.4313 30.272 98.6526 30.272C97.842 30.272 97.1753 30.416 96.6526 30.704C96.13 30.992 95.8686 31.4293 95.8686 32.016C95.8686 32.4533 96.082 32.8 96.5086 33.056C96.9353 33.3013 97.5966 33.5147 98.4926 33.696L101.181 34.304C102.109 34.528 102.861 34.8373 103.437 35.232C104.023 35.616 104.477 36.0373 104.797 36.496C105.117 36.9547 105.335 37.4187 105.453 37.888C105.581 38.3467 105.645 38.7627 105.645 39.136C105.645 40.2347 105.351 41.1733 104.765 41.952C104.178 42.72 103.362 43.3067 102.317 43.712C101.271 44.1173 100.061 44.32 98.6846 44.32ZM113.847 44.32C112.791 44.32 111.842 44.1227 110.999 43.728C110.156 43.3333 109.49 42.7627 108.999 42.016C108.508 41.2587 108.263 40.3413 108.263 39.264C108.263 37.4507 108.94 36.0747 110.295 35.136C111.65 34.1867 113.788 33.696 116.711 33.664L118.775 33.632V32.64C118.775 31.8827 118.551 31.3013 118.103 30.896C117.666 30.48 116.983 30.2773 116.055 30.288C115.372 30.2987 114.722 30.4587 114.103 30.768C113.495 31.0773 113.079 31.616 112.855 32.384H108.967C109.031 31.1893 109.378 30.208 110.007 29.44C110.636 28.6613 111.49 28.0853 112.567 27.712C113.655 27.328 114.887 27.136 116.263 27.136C117.959 27.136 119.319 27.3493 120.343 27.776C121.367 28.192 122.108 28.7947 122.567 29.584C123.026 30.3627 123.255 31.2907 123.255 32.368V44H119.351L118.967 41.152C118.402 42.3467 117.692 43.1733 116.839 43.632C115.996 44.0907 114.999 44.32 113.847 44.32ZM115.415 41.248C115.842 41.248 116.252 41.1733 116.647 41.024C117.052 40.864 117.41 40.656 117.719 40.4C118.039 40.1333 118.295 39.8347 118.487 39.504C118.679 39.1733 118.775 38.832 118.775 38.48V36.032L117.095 36.064C116.316 36.0747 115.591 36.1707 114.919 36.352C114.247 36.5227 113.703 36.8053 113.287 37.2C112.882 37.5947 112.679 38.128 112.679 38.8C112.679 39.568 112.946 40.1707 113.479 40.608C114.012 41.0347 114.658 41.248 115.415 41.248ZM136.752 30.704H133.072L133.104 39.52C133.104 39.9253 133.152 40.2293 133.248 40.432C133.355 40.624 133.515 40.752 133.728 40.816C133.952 40.8693 134.235 40.896 134.576 40.896H136.8V43.776C136.587 43.872 136.251 43.9627 135.792 44.048C135.344 44.1333 134.715 44.176 133.904 44.176C132.453 44.176 131.328 43.9893 130.528 43.616C129.739 43.2427 129.189 42.72 128.88 42.048C128.571 41.376 128.416 40.5973 128.416 39.712V30.704H125.728V27.456H128.576L129.744 22.464H133.072V27.44H136.752V30.704ZM144.907 27.456V44H140.443V27.456H144.907ZM144.955 20.88V25.088H140.411V20.88H144.955ZM153.941 44.32C152.885 44.32 151.935 44.1227 151.093 43.728C150.25 43.3333 149.583 42.7627 149.093 42.016C148.602 41.2587 148.357 40.3413 148.357 39.264C148.357 37.4507 149.034 36.0747 150.389 35.136C151.743 34.1867 153.882 33.696 156.805 33.664L158.869 33.632V32.64C158.869 31.8827 158.645 31.3013 158.197 30.896C157.759 30.48 157.077 30.2773 156.149 30.288C155.466 30.2987 154.815 30.4587 154.197 30.768C153.589 31.0773 153.173 31.616 152.949 32.384H149.061C149.125 31.1893 149.471 30.208 150.101 29.44C150.73 28.6613 151.583 28.0853 152.661 27.712C153.749 27.328 154.981 27.136 156.357 27.136C158.053 27.136 159.413 27.3493 160.437 27.776C161.461 28.192 162.202 28.7947 162.661 29.584C163.119 30.3627 163.349 31.2907 163.349 32.368V44H159.445L159.061 41.152C158.495 42.3467 157.786 43.1733 156.933 43.632C156.09 44.0907 155.093 44.32 153.941 44.32ZM155.509 41.248C155.935 41.248 156.346 41.1733 156.741 41.024C157.146 40.864 157.503 40.656 157.813 40.4C158.133 40.1333 158.389 39.8347 158.581 39.504C158.773 39.1733 158.869 38.832 158.869 38.48V36.032L157.189 36.064C156.41 36.0747 155.685 36.1707 155.013 36.352C154.341 36.5227 153.797 36.8053 153.381 37.2C152.975 37.5947 152.773 38.128 152.773 38.8C152.773 39.568 153.039 40.1707 153.573 40.608C154.106 41.0347 154.751 41.248 155.509 41.248ZM167.484 44V27.456H172.076V29.792C172.332 29.3867 172.663 28.9973 173.068 28.624C173.484 28.24 174.007 27.9253 174.636 27.68C175.266 27.4347 176.012 27.312 176.876 27.312C177.89 27.312 178.834 27.5093 179.708 27.904C180.594 28.2987 181.308 28.9227 181.852 29.776C182.396 30.6187 182.668 31.7227 182.668 33.088V44H177.996V33.664C177.996 32.768 177.73 32.096 177.196 31.648C176.663 31.2 176.012 30.976 175.244 30.976C174.732 30.976 174.236 31.0667 173.756 31.248C173.287 31.4293 172.903 31.7013 172.604 32.064C172.306 32.4267 172.156 32.8747 172.156 33.408V44H167.484ZM191.157 27.456V44H186.693V27.456H191.157ZM191.205 20.88V25.088H186.661V20.88H191.205Z" fill="black"/>
</g>
<defs>
<clipPath id="clip0_338_2">
<rect width="200" height="64" fill="white"/>
</clipPath>
</defs>
</svg>
