<svg width="400" height="128" viewBox="0 0 400 128" fill="none" xmlns="http://www.w3.org/2000/svg">
<rect width="400" height="128" fill="white"/>
<path d="M255.754 93.8629C252.595 93.8629 249.949 96.115 249.308 99.1124H266.008C265.367 96.115 262.724 93.8629 259.564 93.8629H255.754ZM265.274 104.583H268.459C267.305 107.796 264.025 109.958 259.902 109.958H255.754C250.583 109.958 246.381 105.718 246.381 100.513C246.381 95.299 250.583 91.0647 255.754 91.0647H259.564C264.729 91.0647 268.934 95.299 268.934 100.513V101.914H249.305C249.945 104.905 252.592 107.16 255.751 107.16H259.899C262.293 107.154 264.362 106.293 265.274 104.583ZM233.048 85.7639H235.834V88.591H233.048V85.7639ZM220.282 91.0551C225.463 91.0551 229.681 95.3022 229.681 100.526C229.681 105.746 225.463 109.997 220.282 109.997H213.705C210.198 109.997 208.358 107.282 208.358 104.603V85.7639H211.145V91.0551H220.282ZM220.282 107.186C223.93 107.186 226.891 104.192 226.891 100.526C226.891 96.8539 223.926 93.8661 220.282 93.8661H211.145V104.606C211.145 105.923 211.894 107.189 213.705 107.189H220.282V107.186ZM196.517 91.0551C201.698 91.0551 205.91 95.3022 205.91 100.526C205.91 105.746 201.698 109.997 196.517 109.997H191.965C186.784 109.997 182.569 105.746 182.569 100.526C182.569 95.3022 186.784 91.0551 191.965 91.0551H196.517ZM196.517 107.186C200.162 107.186 203.123 104.192 203.123 100.526C203.123 96.8539 200.158 93.8661 196.517 93.8661H191.965C188.317 93.8661 185.355 96.8571 185.355 100.526C185.355 104.195 188.32 107.186 191.965 107.186H196.517ZM233.048 91.0551H235.834V109.997H233.048V91.0551ZM171.57 90.8334C176.467 90.8334 180.449 94.8524 180.449 99.787V110H177.621V99.787C177.621 96.4266 174.901 93.6862 171.57 93.6862C168.232 93.6862 165.515 96.4298 165.515 99.787V110H162.684V99.787C162.684 96.4266 159.971 93.6862 156.636 93.6862C153.301 93.6862 150.582 96.4298 150.582 99.787V110H147.754V91.0583H150.54V93.5031C152.09 91.7683 154.277 90.8334 156.636 90.8334C159.674 90.8334 162.455 92.3851 164.106 94.9713C165.751 92.3851 168.531 90.8334 171.57 90.8334ZM240.19 85.7639H242.976V109.997H240.19V85.7639Z" fill="#212121"/>
<path d="M269.849 94.225C269.849 92.8464 270.987 91.7082 272.362 91.7082C273.737 91.7082 274.879 92.8464 274.879 94.225C274.879 95.6001 273.737 96.7383 272.362 96.7383C270.987 96.7383 269.849 95.6001 269.849 94.225ZM274.43 94.225C274.43 93.108 273.504 92.1571 272.362 92.1571C271.249 92.1571 270.298 93.108 270.298 94.225C270.298 95.3633 271.249 96.2895 272.362 96.2895C273.504 96.2895 274.43 95.3633 274.43 94.225ZM271.358 92.7686H272.606C273.136 92.7686 273.571 93.1928 273.571 93.7302C273.571 94.1579 273.288 94.4584 272.878 94.5821C272.864 94.5821 272.836 94.6103 272.815 94.6103L272.864 94.674L273.673 95.6214H273.094L272.472 94.8684C272.383 94.7623 272.235 94.6527 272.108 94.6527C271.871 94.6527 271.804 94.8047 271.804 94.9744V95.6214H271.355V92.7686H271.358ZM272.108 94.2462H272.602C272.875 94.2462 273.094 94.0059 273.094 93.7302C273.094 93.4262 272.875 93.1928 272.602 93.1928H271.804V94.331C271.892 94.2639 271.994 94.2462 272.108 94.2462Z" fill="black"/>
<path d="M377.765 48.2126H361.44V67.0952C361.44 69.2782 363.058 70.9694 365.248 70.9694H377.768V80.7337H364.882C357.354 80.7337 351.229 74.6186 351.229 67.0952V48.2126H311.543C309.652 48.2126 308.301 49.6883 308.301 51.4663C308.301 53.3343 309.729 54.7779 311.543 54.7779H332.527C339.729 54.7779 345.622 60.4526 345.622 67.5838C345.622 74.805 339.745 80.6791 332.527 80.6791H301.545V71.0047H332.16C333.968 71.0047 335.415 69.5226 335.415 67.7414C335.415 65.8895 333.884 64.4522 332.16 64.4522H311.173C306.667 64.4522 302.671 62.2274 300.316 58.8065L300.329 59.6263C300.329 71.622 290.721 80.6501 278.625 80.6501H267.984C258.375 80.6501 250.333 74.9497 247.435 66.5936C244.533 74.9497 236.491 80.6501 226.879 80.6501H216.238C206.217 80.6501 197.902 74.4513 195.344 65.5036C192.816 74.4996 184.478 80.7337 174.425 80.7337H159.12C151.595 80.7337 145.467 74.6186 145.467 67.0952V26.774H155.681V38.535H174.554C184.446 38.5253 192.774 44.8335 195.325 53.8423C197.879 44.8174 206.317 38.5575 216.238 38.5639H226.879C236.372 38.5575 244.507 44.2934 247.435 52.6945C250.352 44.2934 258.485 38.5575 267.984 38.5639H278.625C287.173 38.5575 294.623 43.2066 298.151 50.2735C298.833 43.6888 304.408 38.535 311.173 38.535H351.229V26.774H361.443V38.535H377.768L377.765 48.2126ZM174.425 71.053C180.756 71.053 185.929 66.436 185.929 59.7164C185.929 52.9774 180.875 48.1033 174.554 48.1033H155.681V66.2496C155.681 69.05 157.608 71.053 160.429 71.053H174.425ZM226.876 70.9629C233.203 70.9629 238.373 66.3492 238.373 59.6263C238.373 52.8874 233.197 48.1355 226.873 48.1355H216.238C209.913 48.1355 204.734 52.8874 204.734 59.6263C204.734 66.3492 209.907 70.9629 216.235 70.9629H226.876ZM278.619 70.9629C284.95 70.9629 290.119 66.3492 290.119 59.6263C290.119 52.8874 284.94 48.1355 278.616 48.1355H267.981C261.653 48.1355 256.48 52.8874 256.48 59.6263C256.48 66.3492 261.65 70.9629 267.978 70.9629H278.619Z" fill="#212121"/>
<path d="M120.107 35.5527C122.728 36.0535 125.239 37.3392 127.273 39.4032C132.631 44.8711 132.631 53.7159 127.273 59.1838L101.966 84.9194C100.315 86.5638 98.2124 87.5112 96.0489 87.7481L111.111 102.683L33.1776 86.1308C30.5705 85.6165 28.052 84.3375 26.0182 82.2735C20.6606 76.8123 20.6606 67.9608 26.0182 62.4997L51.3181 36.7573C52.9765 35.1061 55.0856 34.1655 57.2491 33.9286L42.1795 19L120.107 35.5527ZM94.049 85.7519C94.3015 85.5488 94.5407 85.3256 94.7659 85.0887C98.6629 81.2382 98.6629 74.992 94.7659 71.1347L59.2419 35.9114C58.9962 36.1212 58.7436 36.3376 58.5183 36.5677C54.6281 40.425 54.6281 46.6713 58.5183 50.5218L94.049 85.7519Z" fill="#F7901E"/>
</svg>
