<svg width="400" height="128" viewBox="0 0 400 128" fill="none" xmlns="http://www.w3.org/2000/svg">
<rect width="400" height="128" fill="white"/>
<g clip-path="url(#clip0_347_208)">
<path d="M130.557 34.3503H136.954V58.2891C136.954 68.1463 144.631 76.1259 154.115 76.1259C163.598 76.1259 171.275 68.1463 171.275 58.2891V34.3503H177.673V58.5238C177.372 72.0578 166.609 82.7755 153.588 82.5408C140.868 82.2279 130.707 71.5884 130.482 58.3673C130.632 58.2891 130.557 34.3503 130.557 34.3503Z" fill="#0D254D"/>
<path d="M205.672 33.7245V40.3741C196.188 40.4524 188.511 48.432 188.511 58.2891V82.4626H182.189V58.2891C182.189 44.7551 192.651 33.8027 205.672 33.7245Z" fill="#0D254D"/>
<path d="M210.188 18H216.585V41.5476C225.542 31.6122 240.444 31.1429 250.003 40.4524C259.562 49.7619 260.013 65.2517 251.057 75.1871C242.1 85.1225 227.198 85.5918 217.639 76.2823C212.897 71.6667 210.188 65.1735 210.188 58.2891V18ZM216.585 58.2891C216.585 68.1463 224.262 76.2041 233.746 76.2823C243.229 76.3605 250.982 68.3027 250.982 58.4456C250.982 48.5884 243.305 40.5306 233.821 40.4524H233.746C224.262 40.4524 216.585 48.432 216.585 58.2891Z" fill="#0D254D"/>
<path d="M268.293 38.1837V82.3844H261.895V38.1837H268.293Z" fill="#0D254D"/>
<path d="M320 58.2891C320 71.8231 309.463 82.8537 296.442 82.8537C283.421 82.8537 272.809 71.9014 272.809 58.3673C272.809 44.8333 283.346 33.8027 296.367 33.8027H296.442C309.463 33.8027 320 44.7551 320 58.2891ZM313.602 58.2891C313.602 48.432 305.85 40.3741 296.367 40.4524C286.883 40.5306 279.131 48.5102 279.131 58.3673C279.131 68.2245 286.883 76.2823 296.367 76.2041C305.85 76.2041 313.527 68.2245 313.527 58.3673C313.602 58.3673 313.602 58.2891 313.602 58.2891Z" fill="#0D254D"/>
<path d="M117.913 66.6599C113.472 75.3435 103.085 78.7075 94.7308 74.1701C86.3011 69.5544 83.0647 58.7585 87.4301 49.9966C91.8707 41.2347 102.257 37.8708 110.612 42.4864C114.074 44.364 116.859 47.4932 118.364 51.2483H125.213C121.45 38.2619 108.279 30.9082 95.7845 34.8197C83.2905 38.7313 76.2155 52.4218 79.9788 65.4082C83.7421 78.3946 96.9135 85.7483 109.408 81.8367C116.633 79.568 122.353 73.9354 124.912 66.5816C124.912 66.5816 117.913 66.5816 117.913 66.6599Z" fill="#0D254D"/>
<path d="M269.346 24.2585H271.153L265.131 18L259.11 24.2585H260.841L260.766 30.2041H269.271L269.346 24.2585Z" fill="#CD8629"/>
<path d="M80.2042 96.2313H85.9244V97.4048H81.6343V101.082H85.6233V102.255H81.559V107.262H80.2042V96.2313Z" fill="#0D254D"/>
<path d="M90.9672 96.2313V107.34H89.6124V96.2313H90.9672Z" fill="#0D254D"/>
<path d="M100.827 107.34L99.4721 104.915C98.9453 103.976 98.569 103.429 98.1926 102.724H98.1174C97.8163 103.35 97.5152 103.976 96.9884 104.915L95.7089 107.34H94.1283L97.3647 101.786L94.2036 96.3095H95.7841L97.2142 98.8912C97.5905 99.5952 97.8916 100.221 98.1926 100.769H98.2679C98.569 100.065 98.7948 99.5952 99.2463 98.8912L100.676 96.3095H102.257L99.0206 101.707L102.332 107.418L100.827 107.34Z" fill="#0D254D"/>
<path d="M110.687 107.34V96.2313H112.192L115.579 101.786C116.407 103.116 117.009 104.289 117.461 105.384H117.536C117.461 103.898 117.385 102.568 117.385 100.847V96.2313H118.665V107.34H117.235L113.848 101.707C113.095 100.456 112.418 99.2041 111.816 97.9524H111.74C111.816 99.3605 111.816 100.69 111.816 102.49V107.262L110.687 107.34Z" fill="#0D254D"/>
<path d="M131.912 101.629C131.912 105.463 129.654 107.497 126.944 107.497C124.159 107.497 122.202 105.228 122.202 101.864C122.202 98.3435 124.31 96.0748 127.17 96.0748C129.955 96.0748 131.912 98.3435 131.912 101.629ZM123.557 101.786C123.557 104.133 124.837 106.323 126.944 106.323C129.052 106.323 130.331 104.211 130.331 101.707C130.331 99.517 129.277 97.1701 126.944 97.1701C124.686 97.2483 123.557 99.3605 123.557 101.786Z" fill="#0D254D"/>
<path d="M137.105 107.34L134.395 96.2313H135.825L137.105 101.786C137.406 103.116 137.707 104.524 137.933 105.619H138.008C138.159 104.524 138.46 103.194 138.911 101.786L140.341 96.2313H141.771L143.051 101.864C143.352 103.194 143.653 104.524 143.804 105.619H143.879C144.105 104.367 144.406 103.194 144.782 101.786L146.212 96.2313H147.492L144.481 107.34H142.976L141.621 101.629C141.32 100.221 141.094 99.1259 140.943 98.0306H140.868C140.718 99.1259 140.417 100.221 140.04 101.629L138.535 107.34H137.105Z" fill="#0D254D"/>
<path d="M148.545 109.296C148.846 108.357 149.298 106.558 149.448 105.384L151.029 105.228C150.653 106.636 149.975 108.435 149.524 109.218L148.545 109.296Z" fill="#0D254D"/>
<path d="M159.459 96.3095C160.136 96.2313 160.964 96.0748 162.093 96.0748C163.448 96.0748 164.426 96.3878 165.104 97.0136C165.706 97.483 166.007 98.3435 166.007 99.3605C166.007 100.378 165.706 101.16 165.179 101.707C164.502 102.49 163.297 102.959 161.942 102.959C161.491 102.959 161.115 102.959 160.889 102.881V107.34H159.459V96.3095ZM160.814 101.707C161.115 101.786 161.491 101.786 161.942 101.786C163.598 101.786 164.577 100.925 164.577 99.4388C164.577 97.9524 163.598 97.3265 162.093 97.3265C161.491 97.3265 161.039 97.4048 160.814 97.4048V101.707Z" fill="#0D254D"/>
<path d="M169.921 103.82L168.867 107.34H167.437L171.05 96.2313H172.705L176.318 107.34H174.888L173.759 103.82H169.921ZM173.383 102.725L172.329 99.517C172.103 98.8129 171.953 98.1871 171.802 97.483H171.727C171.576 98.1871 171.426 98.8129 171.2 99.517L170.146 102.725H173.383Z" fill="#0D254D"/>
<path d="M180.684 107.34V102.646L177.297 96.3095H178.877L180.383 99.3605C180.834 100.221 181.06 100.847 181.436 101.707H181.511C181.813 101.003 182.189 100.221 182.565 99.3605L184.071 96.3095H185.651L182.038 102.646V107.418L180.684 107.34Z" fill="#0D254D"/>
<path d="M194.683 107.34L191.973 96.2313H193.403L194.683 101.786C194.984 103.116 195.285 104.524 195.511 105.619H195.586C195.737 104.524 196.038 103.194 196.489 101.786L197.919 96.2313H199.349L200.629 101.864C200.93 103.194 201.231 104.524 201.382 105.619H201.457C201.683 104.367 201.984 103.194 202.36 101.786L203.79 96.2313H205.22L202.209 107.34H200.779L199.425 101.629C199.124 100.221 198.898 99.1259 198.747 98.0306H198.672C198.521 99.1259 198.22 100.221 197.844 101.629L196.339 107.34H194.683Z" fill="#0D254D"/>
<path d="M209.36 96.2313V100.847H214.478V96.2313H215.908V107.34H214.478V102.177H209.36V107.34H208.005V96.2313H209.36Z" fill="#0D254D"/>
<path d="M225.467 102.099H221.327V106.088H225.918V107.262H219.897V96.2313H225.617V97.4048H221.252V100.925H225.391L225.467 102.099Z" fill="#0D254D"/>
<path d="M229.456 107.34V96.2313H230.961L234.348 101.786C235.176 103.116 235.778 104.289 236.229 105.384H236.305C236.229 103.898 236.154 102.568 236.154 100.847V96.2313H237.434V107.34H236.004L232.617 101.707C231.864 100.456 231.187 99.2041 230.585 97.9524H230.509C230.585 99.3605 230.585 100.69 230.585 102.49V107.262L229.456 107.34Z" fill="#0D254D"/>
<path d="M248.121 107.34V102.646L244.734 96.3095H246.315L247.82 99.3605C248.272 100.221 248.498 100.847 248.874 101.707H248.949C249.25 101.003 249.627 100.221 250.003 99.3605L251.508 96.3095H253.089L249.476 102.646V107.418L248.121 107.34Z" fill="#0D254D"/>
<path d="M264.529 101.629C264.529 105.463 262.271 107.497 259.562 107.497C256.777 107.497 254.82 105.228 254.82 101.864C254.82 98.3435 256.927 96.0748 259.788 96.0748C262.572 96.0748 264.529 98.3435 264.529 101.629ZM256.25 101.786C256.25 104.133 257.53 106.323 259.637 106.323C261.744 106.323 263.024 104.211 263.024 101.707C263.024 99.517 261.97 97.1701 259.637 97.1701C257.379 97.2483 256.25 99.3605 256.25 101.786Z" fill="#0D254D"/>
<path d="M269.346 96.2313V102.803C269.346 105.306 270.4 106.323 271.83 106.323C273.411 106.323 274.464 105.228 274.464 102.803V96.2313H275.894V102.724C275.894 106.088 274.163 107.497 271.905 107.497C269.723 107.497 268.067 106.167 268.067 102.724V96.2313H269.346Z" fill="#0D254D"/>
<path d="M284.7 105.541C285.303 105.932 286.206 106.245 287.109 106.245C288.539 106.245 289.367 105.463 289.367 104.367C289.367 103.35 288.84 102.724 287.335 102.177C285.604 101.551 284.55 100.612 284.55 99.0476C284.55 97.3265 285.905 96.0748 288.012 96.0748C289.066 96.0748 289.894 96.3878 290.345 96.6225L289.969 97.7959C289.668 97.6395 288.915 97.3265 287.937 97.3265C286.507 97.3265 285.905 98.2653 285.905 98.9694C285.905 99.9864 286.582 100.456 288.012 101.082C289.819 101.786 290.722 102.724 290.722 104.367C290.722 106.088 289.517 107.575 286.958 107.575C285.905 107.575 284.776 107.262 284.249 106.871L284.7 105.541Z" fill="#0D254D"/>
<path d="M299.829 102.099H295.765V106.088H300.356V107.262H294.334V96.2313H300.055V97.4048H295.689V100.925H299.829V102.099Z" fill="#0D254D"/>
<path d="M303.743 96.2313H305.097V106.088H309.689V107.262H303.743V96.2313Z" fill="#0D254D"/>
<path d="M312.85 96.2313H314.204V106.088H318.796V107.262H312.85V96.2313Z" fill="#0D254D"/>
</g>
<defs>
<clipPath id="clip0_347_208">
<rect width="241" height="92" fill="white" transform="translate(79 18)"/>
</clipPath>
</defs>
</svg>
