<svg width="400" height="128" viewBox="0 0 400 128" fill="none" xmlns="http://www.w3.org/2000/svg">
<rect width="400" height="128" fill="white"/>
<path d="M179.501 18.1868C173.393 18.1868 168.44 23.1525 168.44 29.277C168.44 35.4015 173.393 40.3632 179.501 40.3632C185.611 40.3632 190.561 35.4015 190.561 29.277C190.561 23.1525 185.611 18.1868 179.501 18.1868ZM258.814 18.2253L258.618 18.3106L258.076 18.5285C255.398 19.6304 244.999 22.7393 240.226 24.0736L239.066 24.394V29.4136L240.827 29.2171C241.882 29.0967 242.701 29.0976 243.827 29.0976C245.006 29.0976 245.842 29.3459 246.316 29.8324C247.116 30.6445 247.094 32.2516 247.075 33.5448C247.075 33.553 247.067 34.1215 247.067 34.1215V93.9529C247.067 102.087 246.563 102.795 240.362 103.454L238.934 103.604V108.529H268.382V103.48L268.122 103.455C262.434 102.848 260.906 102.681 260.906 94.0822V63.9218C261.618 63.036 266.851 56.8516 273.284 56.8516C278.868 56.8516 281.352 60.6406 281.352 69.1383V94.2113C281.352 102.108 279.992 103.014 274.179 103.452L274.064 103.46V108.531H302.805V103.699L301.5 103.473C295.911 102.483 295.188 102.348 295.188 94.211V68.6254C295.188 54.1426 289.395 46.7992 277.989 46.7992C271.541 46.7992 265.658 49.5547 260.906 54.7113V19.4846L258.813 18.2286L258.814 18.2253ZM148.381 18.298L148.228 18.3535L147.814 18.5031V18.4976C145.536 19.3151 136.552 22.2631 129.307 24.0512L128.097 24.3545V29.3999L129.84 29.2161C133.91 28.7978 135.453 29.3287 136.029 29.8484C136.697 30.4526 136.732 31.6779 136.732 33.6163V50.5979C133.009 47.9512 129.41 46.7999 124.857 46.7999C117.634 46.7999 110.452 50.4332 105.165 56.771C99.966 63.0021 96.9861 71.3574 96.9861 79.6992C96.9861 108.955 119.158 109.797 121.686 109.797C127.862 109.797 132.91 107.872 136.732 104.115V108.631L138.556 109.998L159.075 102.718V97.8436L157.37 97.9759C153.382 98.2876 151.855 97.7045 151.271 97.1686C150.679 96.619 150.572 95.6593 150.572 93.9559V19.177L148.381 18.298ZM219.388 46.796C208.312 46.796 200.271 54.0492 200.271 64.0425C200.271 74.178 207.682 79.211 215.94 83.8864L223.301 88.0817C227.311 90.3455 229.102 92.9042 229.102 96.3738C229.102 100.97 225.718 103.824 220.27 103.824C210.226 103.824 207.208 95.4603 205.574 87.2743L205.318 86.0012H200.404V109.036H204.223L204.696 108.502C205.577 107.507 205.574 107.507 206.43 107.507C207.906 107.458 209.812 107.909 212.006 108.425C214.761 109.068 217.888 109.797 221.161 109.797C229.467 109.797 241.164 104.213 241.164 91.7941C241.164 83.1323 235.989 79.2509 229.737 75.4149C229.731 75.4094 216.003 67.2595 216.003 67.2595C212.855 65.3784 211.319 62.8651 211.319 59.5869C211.319 56.902 213.468 52.9052 219.388 52.9052C223.782 52.9052 229.183 54.5392 231.927 67.3021L232.2 68.5624H237.021L236.416 47.9409H232.563L232.102 48.7398C231.895 49.1144 231.552 49.3379 231.194 49.3379C230.995 49.3297 229.911 48.9802 229.259 48.7697C226.804 47.9823 223.117 46.796 219.388 46.796ZM172.452 49.9274C172.195 49.8317 172.104 50.0169 172.205 50.2137C173.5 52.8084 175.462 55.4086 179.502 55.4086C183.539 55.4086 185.507 52.8084 186.803 50.2137C186.899 50.0168 186.806 49.8317 186.548 49.9274C186.373 49.993 183.561 51.0339 179.502 51.0339C175.443 51.0339 172.626 49.993 172.452 49.9274ZM125.238 53.5417C132.434 53.5417 136.733 59.5927 136.733 65.4438V93.7176C135.86 97.3649 131.778 100.015 127.015 100.015C119.663 100.015 111.074 93.6158 111.074 75.6251C111.074 59.3269 118.702 53.5417 125.238 53.5417ZM168.957 63.7136C168.799 63.7354 168.759 63.9121 168.859 64.1109C170.829 67.9742 173.706 71.51 179.503 71.51C185.302 71.51 188.177 67.9742 190.141 64.1109C190.28 63.8457 190.16 63.6208 189.847 63.752C188.925 64.1649 184.893 65.8539 179.502 65.8539C174.112 65.8539 170.075 64.1649 169.153 63.752C169.076 63.7192 169.01 63.7067 168.957 63.7136ZM165.411 78.414C165.22 78.4359 165.172 78.6513 165.309 78.9138C167.985 84.1142 171.831 88.6542 179.502 88.6542C187.176 88.6542 191.02 84.1142 193.696 78.9138C193.876 78.5639 193.733 78.3012 193.359 78.4653C191.646 79.2527 186.311 81.6352 179.502 81.6352C172.696 81.6352 167.358 79.2527 165.645 78.4653C165.552 78.4242 165.475 78.4069 165.411 78.414ZM161.537 94.4514C161.312 94.4706 161.254 94.7257 161.426 95.0538C164.879 101.725 169.789 107.349 179.503 107.349C189.216 107.349 194.126 101.725 197.579 95.0538C197.808 94.6163 197.629 94.3105 197.187 94.5155C194.612 95.7076 187.85 98.8515 179.503 98.8515C171.153 98.8515 164.396 95.7076 161.818 94.5155C161.709 94.4641 161.612 94.4446 161.537 94.4514Z" fill="#E41932"/>
</svg>
