<svg width="400" height="128" viewBox="0 0 400 128" fill="none" xmlns="http://www.w3.org/2000/svg">
<rect width="400" height="128" fill="white"/>
<path d="M308 88.4805C308 89.4126 308 90.2625 308 91.1535C307.775 91.1535 307.577 91.1535 307.379 91.1535C301.632 91.1535 295.897 91.1535 290.15 91.1535C289.133 91.1535 288.868 91.4277 288.868 92.4832C288.868 94.4435 288.868 96.39 288.868 98.3503C288.868 98.5285 288.868 98.693 288.868 98.9397C295.263 98.9397 301.605 98.9397 308 98.9397C308 99.8719 308 100.722 308 101.626C301.645 101.626 295.303 101.626 288.908 101.626C288.895 101.832 288.868 101.997 288.868 102.161C288.868 104.546 288.868 106.945 288.868 109.33C288.868 110.331 289.133 110.592 290.097 110.592C295.858 110.592 301.618 110.592 307.366 110.592C307.564 110.592 307.762 110.592 307.987 110.592C307.987 111.496 307.987 112.36 307.987 113.265C307.802 113.278 307.643 113.292 307.485 113.292C301.605 113.292 295.739 113.292 289.859 113.292C288.036 113.292 286.596 112.223 286.16 110.523C286.054 110.112 286.028 109.673 286.028 109.234C286.014 103.655 286.014 98.0898 286.028 92.5106C286.028 90.0706 287.573 88.4805 289.952 88.4805C295.778 88.4805 301.605 88.4805 307.432 88.4805C307.59 88.4805 307.775 88.4805 308 88.4805Z" fill="#F47533"/>
<path d="M221.118 108.431C221.118 101.811 221.118 95.1915 221.118 88.5168C222.057 88.5168 222.955 88.5168 223.894 88.5168C223.894 96.7677 223.894 105.005 223.894 113.283C223.154 113.283 222.453 113.311 221.753 113.269C221.554 113.256 221.356 113.05 221.197 112.886C215.844 107.431 210.478 101.962 205.124 96.5073C204.186 95.5479 203.234 94.5885 202.283 93.6154C202.164 93.492 202.045 93.3961 201.846 93.2042C201.846 99.9337 201.846 106.567 201.846 113.242C200.895 113.242 199.996 113.242 199.044 113.242C199.044 105.019 199.044 96.7951 199.044 88.4894C199.784 88.4894 200.525 88.462 201.278 88.5031C201.437 88.5168 201.595 88.7361 201.741 88.8869C208.019 95.2738 214.298 101.674 220.589 108.075C220.735 108.212 220.88 108.363 221.012 108.5C221.039 108.472 221.078 108.445 221.118 108.431Z" fill="#F47533"/>
<path d="M135.951 113.283C135.213 113.283 134.528 113.31 133.842 113.269C133.644 113.256 133.434 113.064 133.275 112.9C128.253 107.784 123.23 102.655 118.221 97.539C116.955 96.2532 115.689 94.9537 114.424 93.6679C114.305 93.5448 114.187 93.4354 113.976 93.2302C113.976 99.9601 113.976 106.594 113.976 113.256C113 113.256 112.104 113.256 111.155 113.256C111.141 113.064 111.128 112.886 111.128 112.695C111.128 104.83 111.128 96.9781 111.115 89.1129C111.115 88.6752 111.221 88.5657 111.669 88.511C112.961 88.3469 113.857 88.853 114.767 89.8105C120.686 95.9386 126.671 101.998 132.643 108.072C132.788 108.222 132.867 108.414 132.985 108.591C133.051 108.55 133.104 108.509 133.17 108.468C133.17 101.848 133.17 95.2409 133.17 88.5794C134.132 88.5794 135.029 88.5794 135.965 88.5794C135.951 96.7866 135.951 105.008 135.951 113.283Z" fill="#F47533"/>
<path d="M151.246 101.662C151.246 105.589 151.246 109.406 151.246 113.292C150.311 113.292 149.403 113.292 148.442 113.292C148.429 113.114 148.416 112.921 148.416 112.743C148.416 105.974 148.455 99.218 148.389 92.4487C148.376 90.3754 149.929 88.4668 152.233 88.4805C158.09 88.508 163.933 88.4943 169.79 88.4805C170.211 88.4805 170.396 88.5629 170.369 89.0572C170.33 89.7438 170.356 90.4303 170.356 91.1855C170.08 91.1855 169.856 91.1855 169.645 91.1855C163.946 91.1855 158.247 91.1855 152.535 91.1855C151.496 91.1855 151.232 91.4601 151.232 92.5449C151.232 94.4809 151.232 96.4307 151.232 98.3667C151.232 98.5589 151.232 98.7374 151.232 98.9846C151.482 98.9846 151.68 98.9846 151.877 98.9846C157.826 98.9846 163.788 98.9846 169.737 98.9709C170.211 98.9709 170.382 99.0944 170.356 99.6025C170.317 100.275 170.343 100.948 170.343 101.676C163.973 101.662 157.642 101.662 151.246 101.662Z" fill="#F47533"/>
<path d="M266.905 113.292C265.899 113.292 264.999 113.292 264.046 113.292C264.046 105.91 264.046 98.5563 264.046 91.1472C260.83 91.1472 257.667 91.1472 254.478 91.1472C254.478 90.2262 254.478 89.374 254.478 88.4805C261.81 88.4805 269.115 88.4805 276.46 88.4805C276.46 89.3465 276.46 90.1987 276.46 91.1197C273.297 91.1197 270.134 91.1197 266.918 91.1197C266.905 98.5288 266.905 105.883 266.905 113.292Z" fill="#F47533"/>
<path d="M242.053 113.292C241.07 113.292 240.155 113.292 239.186 113.292C239.186 105.031 239.186 96.7831 239.186 88.4805C240.128 88.4805 241.07 88.4805 242.053 88.4805C242.053 96.7556 242.053 105.003 242.053 113.292Z" fill="#F47533"/>
<path d="M182.796 88.4805C183.77 88.4805 184.703 88.4805 185.664 88.4805C185.664 96.7556 185.664 105.003 185.664 113.292C184.703 113.292 183.77 113.292 182.796 113.292C182.796 105.031 182.796 96.7693 182.796 88.4805Z" fill="#F47533"/>
<path d="M94.8585 113.292C93.852 113.292 92.9394 113.292 92 113.292C92 105.026 92 96.8014 92 88.4805C92.8723 88.4805 93.758 88.4805 94.6303 88.4942C94.7109 88.4942 94.8182 88.6315 94.8451 88.7139C94.8853 88.8649 94.8585 89.0297 94.8585 89.1807C94.8585 96.9936 94.8585 104.82 94.8585 112.633C94.8585 112.839 94.8585 113.045 94.8585 113.292Z" fill="#F47533"/>
<path d="M308 37.3256V27.2443H291.258V15H280.781V27.2443H239.699C237.087 27.2443 234.651 28.0297 232.584 29.3558H232.571C232.571 29.3558 231.227 30.0511 229.654 31.8665C229.476 32.0725 229.312 32.2785 229.147 32.4974C228.969 32.7291 228.779 32.9609 228.601 33.2313C228.576 33.2699 228.551 33.2956 228.525 33.3343V33.3471C228.031 34.0682 227.549 34.8922 227.092 35.8449C226.572 35.2269 226.039 34.6218 225.443 34.0424C216.806 25.6864 202.727 25.6735 194.064 34.0167L170.156 57.0633C165.704 61.3507 158.474 61.3507 154.035 57.0504C151.866 54.9646 150.687 52.1707 150.687 49.1965C150.687 46.2223 151.879 43.4413 154.035 41.3426C156.191 39.2569 159.058 38.111 162.102 38.111C165.146 38.111 168 39.2569 170.156 41.3298L175.572 46.5313L183.182 39.2054L177.779 34.0167C169.116 25.6735 155.05 25.6864 146.4 34.0424C144.522 35.8578 143.038 37.9565 141.96 40.2354C138.498 32.5231 130.799 27.3473 121.806 27.3602H102.477V15.103H92V57.1019C92 64.93 98.2783 71.3032 106.003 71.3032H121.705C130.9 71.3032 138.675 66.1145 142.087 58.3379C143.165 60.5267 144.598 62.561 146.425 64.3249C150.61 68.3677 156.179 70.5951 162.127 70.5951C168.05 70.5951 173.618 68.3805 177.804 64.3506L201.712 41.304C206.164 37.0166 213.394 37.0166 217.833 41.3169C220.002 43.4155 221.194 46.1966 221.194 49.1708C221.194 52.1321 220.002 54.926 217.833 57.0246C213.394 61.3249 206.152 61.3249 201.712 57.0375L196.296 51.8359L188.699 59.1619L194.089 64.3506C202.752 72.6937 216.818 72.6809 225.468 64.3249C229.033 60.8743 231.227 56.4452 231.798 51.6685C234.017 53.2779 236.757 54.2307 239.712 54.2307H261.236C263.012 54.2307 264.572 55.7371 264.572 57.6555C264.572 59.5095 263.088 61.0546 261.236 61.0546H235.831V71.1358H261.604C269.011 71.1358 275.036 65.0201 275.036 57.501C275.036 50.072 268.998 44.1623 261.604 44.1623H240.08C238.215 44.1623 236.757 42.6559 236.757 40.7118C236.757 38.8577 238.139 37.3256 240.08 37.3256H280.781V56.9989C280.781 64.827 287.06 71.2002 294.784 71.2002H308V61.0288H295.164C292.919 61.0288 291.258 59.2649 291.258 56.9989V37.3256H308ZM121.705 61.2219H107.347C104.455 61.2219 102.477 59.1362 102.477 56.2135V37.3127H121.832C128.313 37.3127 133.5 42.3855 133.5 49.4154C133.5 56.4066 128.186 61.2219 121.705 61.2219Z" fill="#161A29"/>
</svg>
