<svg width="400" height="128" viewBox="0 0 400 128" fill="none" xmlns="http://www.w3.org/2000/svg">
<rect width="400" height="128" fill="white"/>
<path fill-rule="evenodd" clip-rule="evenodd" d="M77.2796 55.14H85.0452V60.096H85.1809C85.908 58.5975 87.0771 57.267 88.6927 56.097C90.3007 54.9315 92.4729 54.3465 95.2002 54.3465C100.329 54.3465 103.734 56.3055 105.416 60.2265C106.597 58.2015 108.072 56.7165 109.845 55.7685C111.614 54.8235 113.729 54.3465 116.18 54.3465C118.36 54.3465 120.2 54.702 121.7 55.404C123.199 56.109 124.415 57.0795 125.344 58.314C126.273 59.547 126.946 60.9855 127.352 62.64C127.761 64.29 127.967 66.063 127.967 67.9575V86.8515H119.791V68.883C119.791 67.914 119.701 66.978 119.518 66.075C119.359 65.2274 119.034 64.4188 118.563 63.6945C118.101 63.0072 117.469 62.4498 116.728 62.076C115.952 61.683 114.955 61.482 113.729 61.482C112.456 61.482 111.377 61.7145 110.49 62.1765C109.605 62.6415 108.878 63.2565 108.312 64.0275C107.733 64.8194 107.316 65.7163 107.084 66.6675C106.836 67.6515 106.709 68.662 106.708 69.6765V86.8515H98.5355V67.9575C98.5355 65.9745 98.1025 64.3995 97.2412 63.2325C96.3784 62.067 94.9483 61.482 92.9496 61.482C91.5859 61.482 90.438 61.7025 89.5072 62.1435C88.6104 62.5587 87.8186 63.1687 87.1902 63.9285C86.5738 64.6868 86.1219 65.5636 85.8628 66.504C85.5874 67.4931 85.4499 68.5152 85.454 69.5415V86.8515H77.2796V55.14V55.14ZM133.891 55.14H141.66V60.225H141.796C142.565 58.6425 143.746 57.267 145.337 56.097C146.927 54.9315 149.084 54.3465 151.81 54.3465C153.989 54.3465 155.841 54.702 157.364 55.404C158.885 56.109 160.12 57.0345 161.075 58.1805C162.037 59.3389 162.734 60.691 163.118 62.1435C163.53 63.6435 163.732 65.205 163.732 66.8325V86.8515H155.556V70.8C155.556 69.9195 155.511 68.937 155.42 67.86C155.337 66.8166 155.097 65.7916 154.707 64.8195C154.324 63.8827 153.7 63.0627 152.898 62.442C152.08 61.8045 150.969 61.4835 149.56 61.4835C148.2 61.4835 147.051 61.704 146.12 62.145C145.223 62.5594 144.431 63.1695 143.803 63.93C143.187 64.6883 142.735 65.5651 142.476 66.5055C142.201 67.4947 142.064 68.5167 142.069 69.543V86.853H133.893V55.14H133.891ZM170.137 86.853H178.314V55.14H170.138V86.85L170.137 86.853ZM168.977 44.37C168.977 43.095 169.465 41.982 170.443 41.0325C171.419 40.0905 172.657 39.6135 174.154 39.6135C175.655 39.6135 176.914 40.0665 177.936 40.968C178.96 41.871 179.468 43.008 179.468 44.37C179.468 45.7365 178.96 46.8705 177.936 47.772C176.914 48.678 175.655 49.1265 174.155 49.1265C172.657 49.1265 171.419 48.657 170.444 47.7075C169.464 46.7625 168.977 45.648 168.977 44.37V44.37ZM186.213 40.077H192.96L210.537 79.3215L228.113 40.077H234.515V86.8515H230.02V45.627H229.884L211.487 86.85H209.511L190.848 45.627H190.708V86.85H186.213V40.077ZM243.236 71.5905C243.224 73.2472 243.512 74.8925 244.087 76.4475C244.629 77.9267 245.476 79.2766 246.574 80.4105C247.698 81.5563 249.041 82.4662 250.525 83.0865C252.07 83.748 253.797 84.0765 255.702 84.0765C257.61 84.0765 259.334 83.748 260.882 83.0865C262.365 82.4662 263.707 81.5562 264.83 80.4105C265.928 79.2766 266.776 77.9267 267.319 76.4475C267.892 74.892 268.179 73.247 268.168 71.5905C268.179 69.9346 267.892 68.2902 267.32 66.735C266.777 65.2557 265.929 63.9057 264.83 62.772C263.707 61.6258 262.365 60.7153 260.882 60.0945C259.334 59.4345 257.61 59.1045 255.702 59.1045C253.797 59.1045 252.07 59.4345 250.525 60.0945C249.041 60.715 247.697 61.6255 246.573 62.772C245.475 63.906 244.628 65.256 244.087 66.735C243.512 68.2896 243.224 69.9343 243.236 71.5905M239.148 71.5905C239.148 69.258 239.557 67.11 240.373 65.151C241.155 63.2456 242.314 61.5155 243.78 60.063C245.235 58.632 246.983 57.519 249.027 56.7255C251.069 55.9305 253.296 55.5375 255.702 55.5375C258.109 55.5375 260.325 55.932 262.345 56.7255C264.301 57.4781 266.086 58.6129 267.593 60.063C269.076 61.5085 270.246 63.2399 271.031 65.151C271.849 67.11 272.257 69.258 272.257 71.5905C272.257 73.926 271.85 76.0755 271.031 78.0345C270.245 79.9448 269.075 81.6752 267.592 83.1195C266.113 84.5535 264.367 85.6635 262.345 86.457C260.324 87.2505 258.109 87.6435 255.702 87.6435C253.296 87.6435 251.071 87.2505 249.027 86.457C246.983 85.6635 245.235 84.552 243.78 83.1195C242.314 81.6682 241.154 79.9391 240.371 78.0345C239.557 76.074 239.149 73.926 239.149 71.5905M276.142 64.92C276.142 64.3455 276.118 63.6525 276.071 62.8395C276.026 62.0135 275.991 61.1869 275.968 60.36C275.949 59.5779 275.914 58.7963 275.866 58.0155C275.823 57.2865 275.799 56.7255 275.799 56.328H279.887C279.933 57.474 279.967 58.5765 279.988 59.634C280.009 60.6915 280.067 61.374 280.162 61.6815H280.364C281.182 60.006 282.545 58.5645 284.452 57.354C286.36 56.1435 288.584 55.539 291.128 55.539C293.58 55.539 295.578 55.911 297.123 56.661C298.666 57.411 299.881 58.3875 300.768 59.598C301.653 60.813 302.267 62.2095 302.608 63.798C302.946 65.3805 303.119 67.011 303.119 68.685V86.853H299.031V68.883C299.031 67.6485 298.917 66.45 298.69 65.283C298.485 64.1731 298.081 63.109 297.496 62.142C296.93 61.2165 296.137 60.483 295.115 59.931C294.091 59.3805 292.762 59.106 291.128 59.106C289.629 59.106 288.208 59.358 286.872 59.865C285.529 60.3705 284.372 61.14 283.398 62.175C282.417 63.2115 281.646 64.5105 281.079 66.0765C280.51 67.6395 280.228 69.4755 280.228 71.5905V86.853H276.14V64.92H276.142ZM333.775 69.015C333.775 67.6485 333.492 66.3735 332.924 65.184C332.359 64.0004 331.574 62.9344 330.608 62.043C329.594 61.1193 328.416 60.3909 327.134 59.895C325.777 59.3656 324.332 59.0973 322.874 59.1045C320.648 59.1045 318.8 59.5455 317.322 60.4275C315.846 61.305 314.676 62.319 313.813 63.465C312.95 64.611 312.338 65.721 311.974 66.8025C311.611 67.881 311.428 68.6175 311.428 69.015H333.775V69.015ZM336.911 81.105C335.319 83.4405 333.354 85.1115 331.014 86.1255C328.676 87.138 326.101 87.6435 323.283 87.6435C320.877 87.6435 318.693 87.2505 316.742 86.4585C314.848 85.7046 313.131 84.5676 311.701 83.1195C310.292 81.6885 309.217 79.9935 308.465 78.0345C307.714 76.074 307.342 73.9035 307.342 71.5245C307.342 69.2355 307.726 67.119 308.499 65.184C309.237 63.2974 310.35 61.5782 311.772 60.129C313.188 58.6899 314.878 57.5448 316.742 56.76C318.651 55.944 320.762 55.539 323.081 55.539C325.485 55.539 327.609 55.944 329.448 56.76C331.29 57.5745 332.832 58.653 334.079 59.9985C335.321 61.3258 336.284 62.8863 336.911 64.5885C337.546 66.306 337.864 68.0445 337.864 69.8085V72.582H311.428C311.428 73.419 311.601 74.487 311.941 75.786C312.28 77.085 312.905 78.351 313.813 79.5855C314.723 80.8185 315.937 81.8775 317.457 82.755C318.981 83.64 320.945 84.078 323.352 84.078C325.44 84.078 327.465 83.592 329.415 82.623C331.369 81.657 332.865 80.334 333.91 78.66L336.911 81.105V81.105ZM351.831 97.9455C351.057 100.011 349.991 101.636 348.628 102.833C347.265 104.022 345.447 104.618 343.178 104.618C342.497 104.618 341.815 104.559 341.133 104.448C340.466 104.336 339.806 104.187 339.157 104.001L339.567 100.149C340.158 100.332 340.76 100.502 341.373 100.664C341.985 100.823 342.61 100.904 343.248 100.904C343.972 100.904 344.62 100.743 345.186 100.424C345.753 100.1 346.244 99.6885 346.652 99.186C347.063 98.6805 347.413 98.1195 347.708 97.5C348.004 96.879 348.265 96.2475 348.493 95.607L351.351 88.248L338.546 56.328H343.112L353.533 83.088L363.685 56.328H368.044L351.831 97.9455V97.9455Z" fill="black"/>
<path fill-rule="evenodd" clip-rule="evenodd" d="M48.9172 39V46.89C57.5728 47.7165 64.3399 54.795 64.3399 63.408C64.3399 72.0165 57.5728 79.098 48.9172 79.92V87.81C62.0621 86.967 72.4539 76.365 72.4539 63.408C72.4539 50.4465 62.0621 39.843 48.9172 39ZM22 63.408C22 76.344 32.3602 86.9325 45.4764 87.807V79.911C36.8479 79.062 30.1156 71.9955 30.1156 63.408C30.1156 54.8145 36.8479 47.748 45.4764 46.9005V39.006C32.3602 39.879 22 50.466 22 63.408Z" fill="url(#paint0_linear_347_101)"/>
<path fill-rule="evenodd" clip-rule="evenodd" d="M372.152 56.8785H371.088V56.3355H373.834V56.8785H372.769V59.6985H372.15L372.152 56.8785ZM374.268 56.3355H375.209L376.137 58.692L377.069 56.337H378V59.7H377.412V56.9055H377.403L376.348 59.7H375.918L374.864 56.9055H374.855V59.7H374.267L374.268 56.3355Z" fill="#FEFEFE"/>
<defs>
<linearGradient id="paint0_linear_347_101" x1="22" y1="63.405" x2="51.4807" y2="63.405" gradientUnits="userSpaceOnUse">
<stop stop-color="#F7901E"/>
<stop offset="1" stop-color="#F36C21"/>
</linearGradient>
</defs>
</svg>
