<svg width="400" height="128" viewBox="0 0 400 128" fill="none" xmlns="http://www.w3.org/2000/svg">
<rect width="400" height="128" fill="white"/>
<g clip-path="url(#clip0_347_71)">
<path d="M70.424 105.817C93.264 105.817 111.78 87.2983 111.78 64.4543C111.78 41.6102 93.264 23.0915 70.424 23.0915C47.584 23.0915 29.0686 41.6102 29.0686 64.4543C29.0686 87.2983 47.584 105.817 70.424 105.817Z" fill="#0015EA"/>
<path d="M70.4241 39.1427C73.5103 39.1427 76.025 41.635 76.025 44.7446C76.025 47.8543 73.5331 50.3466 70.4241 50.3466C67.4064 50.3466 64.8231 47.8543 64.8231 44.7446C64.8231 41.635 67.4064 39.1427 70.4241 39.1427Z" fill="white"/>
<path d="M64.5031 56.8174C66.652 58.0521 68.9381 58.395 70.5155 58.395C72.0929 58.395 74.379 58.0749 76.5279 56.8174C76.8709 56.6116 77.0766 56.9546 76.9852 57.2518C76.2536 60.2242 73.6475 62.4422 70.5384 62.465H70.4926C67.3836 62.4422 64.7545 60.2242 64.0459 57.2518C63.9544 56.9546 64.1373 56.6116 64.5031 56.8174Z" fill="white"/>
<path d="M62.1255 68.1584C65.1203 69.8961 68.3209 70.3534 70.5155 70.3534C72.7102 70.3534 75.9107 69.8961 78.9055 68.1584C79.3856 67.884 79.6599 68.3642 79.5456 68.7758C78.5397 72.9372 74.882 76.024 70.5384 76.0468H70.4927C66.1491 76.024 62.4913 72.9372 61.4854 68.7758C61.3711 68.3642 61.6226 67.884 62.1255 68.1584Z" fill="white"/>
<path d="M81.946 82.2433C80.6658 87.5251 76.0479 91.435 70.5384 91.4578H70.4698C64.9603 91.435 60.3424 87.5251 59.0622 82.2433C58.925 81.7174 59.2679 81.1 59.8852 81.4658C63.6572 83.6609 67.7265 84.2325 70.5155 84.2554C73.3045 84.2554 77.3509 83.6837 81.1458 81.4658C81.7402 81.1229 82.0831 81.7174 81.946 82.2433Z" fill="white"/>
<path d="M270.366 52.13C259.141 52.13 251.277 60.773 251.277 71.4738C251.277 83.3179 259.759 90.8862 270.983 90.8862C276.47 90.8862 281.979 89.3314 285.729 86.176C286.003 85.9474 286.049 85.5587 285.866 85.2614L282.368 80.1397C282.139 79.8196 281.682 79.7281 281.385 80.0025C278.962 81.9917 275.258 83.1807 272.081 83.1807C265.817 83.1807 262.067 79.2937 261.45 74.6292H288.198C288.586 74.6292 288.883 74.332 288.883 73.9433V72.4799C288.861 60.3843 281.362 52.13 270.366 52.13ZM261.267 68.0212C261.725 64.3628 264.331 59.8355 270.366 59.8355C276.79 59.8355 279.236 64.5 279.465 68.0212H261.267Z" fill="#171725"/>
<path d="M310.853 52.13C318.054 52.13 322.535 55.1025 325.072 58.3493C325.278 58.6237 325.255 59.0353 325.004 59.2639L319.677 64.2028C319.38 64.4771 318.923 64.4314 318.671 64.1113C316.911 61.962 314.419 60.7273 311.333 60.7273C305.458 60.7273 301.32 65.003 301.32 71.4281C301.32 77.8532 305.458 82.1975 311.333 82.1975C314.419 82.1975 316.934 80.9171 318.671 78.8135C318.923 78.5163 319.38 78.4705 319.677 78.7449L325.027 83.7066C325.278 83.9581 325.324 84.3468 325.095 84.6212C322.603 87.8223 318.168 90.7719 311.127 90.8405C300.36 90.9548 291.375 82.3576 291.307 71.5882C291.215 60.2242 299.422 52.13 310.853 52.13Z" fill="#171725"/>
<path d="M155.49 38.1366C140.127 38.1366 128.902 49.1347 128.902 64.5C128.902 79.8653 140.127 90.8634 155.49 90.8634C170.921 90.8634 182.146 79.8653 182.146 64.5C182.146 49.1347 170.921 38.1366 155.49 38.1366ZM155.49 81.2372C146.094 81.2372 140.059 73.9661 140.059 64.5C140.059 54.9424 146.094 47.7628 155.49 47.7628C164.886 47.7628 170.989 54.9424 170.989 64.5C171.012 73.9661 164.886 81.2372 155.49 81.2372Z" fill="#171725"/>
<path d="M231.754 48.5174H217.534C217.146 48.5174 216.849 48.2201 216.849 47.8314V39.6686C216.849 39.2799 217.146 38.9827 217.534 38.9827H256.809C257.198 38.9827 257.495 39.2799 257.495 39.6686V47.8543C257.495 48.243 257.198 48.5402 256.809 48.5402H242.681V89.2628C242.681 89.6515 242.384 89.9488 241.996 89.9488H232.44C232.051 89.9488 231.754 89.6515 231.754 89.2628V48.5174Z" fill="#171725"/>
<path d="M348.802 52.4501C344.321 52.4501 340.892 54.3251 338.629 57.389V39.5543C338.629 39.2113 338.355 38.9369 338.012 38.9369H329.553C329.21 38.9369 328.936 39.2113 328.936 39.5543V89.3314C328.936 89.6744 329.21 89.9488 329.553 89.9488H338.012C338.355 89.9488 338.629 89.6744 338.629 89.3314V68.0441C338.629 63.2196 342.081 60.5444 346.242 60.5444C350.402 60.5444 353.671 63.1052 353.671 69.3931V89.3314C353.671 89.6744 353.946 89.9488 354.289 89.9488H362.747C363.09 89.9488 363.364 89.6744 363.364 89.3314V68.7986C363.364 57.5033 356.895 52.4501 348.802 52.4501Z" fill="#171725"/>
<path d="M207.933 52.4501C203.452 52.4501 200.023 54.3251 197.76 57.389V53.6391C197.76 53.2961 197.485 53.0218 197.142 53.0218H188.684C188.341 53.0218 188.067 53.2961 188.067 53.6391V89.3314C188.067 89.6744 188.341 89.9488 188.684 89.9488H197.142C197.485 89.9488 197.76 89.6744 197.76 89.3314V68.0441C197.76 63.2196 201.212 60.5444 205.372 60.5444C209.533 60.5444 212.802 63.1052 212.802 69.3931V89.3314C212.802 89.6744 213.076 89.9488 213.419 89.9488H221.878C222.221 89.9488 222.495 89.6744 222.495 89.3314V68.7986C222.495 57.5033 216.026 52.4501 207.933 52.4501Z" fill="#171725"/>
<path d="M367.571 87.2274V87.6619H366.702V89.9484H366.153V87.6619H365.285V87.2274H367.571Z" fill="#171725"/>
<path d="M370.52 89.9488L370.428 88.3482C370.428 88.1424 370.428 87.868 370.406 87.5937H370.383C370.314 87.8223 370.223 88.1653 370.154 88.3939L369.651 89.903H369.103L368.6 88.3482C368.554 88.1424 368.462 87.8223 368.417 87.5708H368.394C368.394 87.8223 368.394 88.0738 368.371 88.3254L368.28 89.9259H367.754L367.959 87.205H368.782L369.263 88.5311C369.331 88.7369 369.377 88.9427 369.445 89.2171C369.514 88.9656 369.583 88.7369 369.628 88.5311L370.108 87.1821H370.886L371.091 89.903L370.52 89.9488Z" fill="#171725"/>
</g>
<defs>
<clipPath id="clip0_347_71">
<rect width="342" height="83" fill="white" transform="translate(29 23)"/>
</clipPath>
</defs>
</svg>
