<svg width="400" height="128" viewBox="0 0 400 128" fill="none" xmlns="http://www.w3.org/2000/svg">
<g clip-path="url(#clip0_347_279)">
<rect width="400" height="128" fill="white"/>
<g clip-path="url(#clip1_347_279)">
<mask id="mask0_347_279" style="mask-type:luminance" maskUnits="userSpaceOnUse" x="-39" y="-37" width="478" height="202">
<path d="M439 -37H-39V165H439V-37Z" fill="white"/>
</mask>
<g mask="url(#mask0_347_279)">
<path d="M320.971 66.294L325.31 54.9269L329.643 66.294H320.971ZM329.817 48.4721H320.802L308.206 79.2932H316.014L318.882 71.7719H331.733L334.603 79.2932H342.408L329.817 48.4721ZM266.239 73.9347C261.153 73.9347 257.036 69.3519 257.036 63.6963C257.036 58.0406 261.155 53.4545 266.239 53.4545C271.318 53.4545 275.441 58.0399 275.441 63.6963C275.441 69.3526 271.318 73.9347 266.239 73.9347ZM266.239 47.4154C263.016 47.4164 259.866 48.3719 257.186 50.1611C254.507 51.9504 252.419 54.493 251.186 57.4676C249.953 60.4422 249.631 63.7151 250.26 66.8726C250.889 70.03 252.442 72.9302 254.721 75.2065C257 77.4827 259.904 79.0328 263.065 79.6607C266.226 80.2887 269.503 79.9663 272.481 78.7343C275.459 77.5024 278.004 75.4161 279.795 72.7394C281.585 70.0627 282.541 66.9157 282.542 63.6963C282.541 59.3781 280.823 55.237 277.766 52.1839C274.709 49.1308 270.563 47.4155 266.239 47.4154ZM201.912 73.9347C196.833 73.9347 192.714 69.3519 192.714 63.6963C192.714 58.0406 196.832 53.4545 201.912 53.4545C206.992 53.4545 211.116 58.0399 211.116 63.6963C211.116 69.3526 206.997 73.9347 201.912 73.9347ZM201.912 47.4154C198.689 47.4163 195.538 48.3717 192.859 50.161C190.179 51.9502 188.091 54.4928 186.858 57.4674C185.625 60.4419 185.303 63.7149 185.932 66.8723C186.562 70.0298 188.114 72.93 190.393 75.2063C192.672 77.4826 195.576 79.0327 198.737 79.6607C201.899 80.2887 205.175 79.9663 208.153 78.7344C211.131 77.5024 213.676 75.4162 215.467 72.7394C217.258 70.0627 218.214 66.9157 218.214 63.6963C218.214 61.5579 217.793 59.4404 216.974 57.4648C216.155 55.4891 214.954 53.694 213.44 52.1821C211.926 50.6702 210.129 49.471 208.151 48.6531C206.173 47.8352 204.053 47.4147 201.912 47.4154ZM242.204 48.4721L234.217 60.9421L226.223 48.4721H218.413L230.776 67.8002V79.2932H237.652V67.8031L250.015 48.4721H242.204ZM309.848 48.4721H283.464V54.3822H293.236V79.2932H300.12V54.3822H309.849L309.848 48.4721ZM157.791 54.3822H167.567V79.2932H174.445V54.3822H184.178V48.4721H157.791V54.3822Z" fill="black"/>
<path d="M139.278 26.9789H65.2264V100.946H139.278V26.9789Z" fill="#EB0A1E"/>
<path d="M114.602 47.8896C106.536 45.5488 97.9702 45.5488 89.9044 47.8896C80.7636 50.8248 74.483 56.9208 74.483 63.9647C74.483 73.8749 86.9154 81.9101 102.254 81.9101C117.592 81.9101 130.022 73.8749 130.022 63.9647C130.022 56.9208 123.741 50.827 114.602 47.8896ZM102.254 74.1944C99.9648 74.1944 98.0959 69.6993 97.9863 64.0511C99.3626 64.1748 100.79 64.2409 102.254 64.2409C103.717 64.2409 105.143 64.1748 106.519 64.0511C106.409 69.6993 104.54 74.1944 102.254 74.1944ZM98.2746 59.6295C98.8996 55.6648 100.444 52.8566 102.254 52.8566C104.064 52.8566 105.607 55.6648 106.231 59.6295C104.959 59.7441 103.627 59.8076 102.254 59.8076C100.88 59.8076 99.5479 59.7441 98.2746 59.6295ZM108.663 59.3301C107.734 53.1074 105.215 48.6465 102.254 48.6465C99.292 48.6465 96.7718 53.1074 95.843 59.3301C90.2023 58.4505 86.2595 56.4489 86.2595 54.1167C86.2595 50.9743 93.4207 48.4265 102.254 48.4265C111.088 48.4265 118.249 50.9743 118.249 54.1167C118.249 56.4489 114.306 58.4505 108.664 59.3301M78.5376 63.3081C78.5376 60.2703 79.7079 57.4232 81.7505 54.9739C81.7266 55.1443 81.7143 55.3161 81.7137 55.4881C81.7137 59.3077 87.4607 62.5581 95.4728 63.7517C95.4665 64.0404 95.4617 64.3294 95.4617 64.6218C95.4617 71.7274 97.4351 77.7459 100.163 79.821C88.0428 79.0806 78.5365 71.972 78.5365 63.3081M104.346 79.821C107.072 77.7459 109.045 71.7278 109.045 64.6218C109.045 64.328 109.042 64.0404 109.035 63.7517C117.046 62.5577 122.793 59.3077 122.793 55.4881C122.793 55.3161 122.78 55.1443 122.757 54.9739C124.798 57.4232 125.97 60.2703 125.97 63.3081C125.97 71.972 116.463 79.0806 104.346 79.821Z" fill="white"/>
</g>
</g>
</g>
<defs>
<clipPath id="clip0_347_279">
<rect width="400" height="128" fill="white"/>
</clipPath>
<clipPath id="clip1_347_279">
<rect width="478" height="202" fill="white" transform="translate(-39 -37)"/>
</clipPath>
</defs>
</svg>
